<svg xmlns="http://www.w3.org/2000/svg" viewBox="0 0 127.59 127.59"><defs><style>.a,.k{fill:#ccc;}.b,.e{fill:#aaa;}.c,.i{fill:none;}.c,.e,.i,.j,.k{stroke:#1d1d1b;stroke-miterlimit:10;}.d{fill:#ededed;}.e,.j,.k{stroke-width:0.25px;}.f{fill:#384797;}.g{fill:#242c72;}.h{fill:#f6f6f6;}.i{stroke-width:0.5px;}.j{fill:#f9b233;}.l{font-size:5px;}.l,.m{font-family:MyriadPro-Regular, Myriad Pro;}.m{font-size:10px;}.n{letter-spacing:-0.03em;}.o{letter-spacing:0em;}</style></defs><circle class="a" cx="64.08" cy="63.35" r="63.3"/><path class="b" d="M137.31,42.81a63.29,63.29,0,0,1-84.7,93.12,63.29,63.29,0,1,0,84.7-93.12Z" transform="translate(-35.92 -30.58)"/><circle class="c" cx="63.8" cy="63.8" r="63.3"/><path class="d" d="M54.51,72.67c-7,14.09-4.35,30.57-7.32,29-3.25-.84-8.35-21.29,1.35-36.28C58,50.48,70.29,49.89,70.32,51.87,71.13,54.08,61.27,58.4,54.51,72.67Z" transform="translate(-35.92 -30.58)"/><rect x="19.71" y="62.93" width="88.74" height="1.83" rx="0.91"/><rect x="55.63" y="93.51" width="88.74" height="1.83" rx="0.91" transform="translate(-56.95 -1.48) rotate(-15)"/><rect x="55.63" y="93.51" width="88.74" height="1.83" rx="0.91" transform="translate(-69.74 32.07) rotate(-30)"/><rect x="55.63" y="93.51" width="88.74" height="1.83" rx="0.91" transform="translate(-73.4 67.78) rotate(-45)"/><rect x="55.63" y="93.44" width="88.74" height="1.83" rx="0.91" transform="translate(-67.63 103.19) rotate(-60)"/><rect x="55.63" y="93.51" width="88.74" height="1.83" rx="0.91" transform="translate(-53.01 135.99) rotate(-75)"/><rect x="55.53" y="93.61" width="88.74" height="1.83" rx="0.91" transform="translate(-30.55 163.84) rotate(-90)"/><rect x="55.45" y="93.62" width="88.74" height="1.83" rx="0.91" transform="matrix(-0.26, -0.97, 0.97, -0.26, -1.58, 184.83)"/><rect x="55.45" y="93.62" width="88.74" height="1.83" rx="0.91" transform="translate(31.94 197.65) rotate(-120)"/><rect x="55.45" y="93.75" width="88.74" height="1.83" rx="0.91" transform="translate(67.54 201.6) rotate(-135)"/><rect x="55.53" y="93.92" width="88.74" height="1.83" rx="0.91" transform="translate(103.07 196.33) rotate(-150)"/><rect x="55.35" y="93.92" width="88.74" height="1.83" rx="0.91" transform="translate(135.57 181.66) rotate(-165)"/><polygon class="a" points="58.64 62.93 27.42 108.08 53.6 113.55 92.71 103.78 58.64 62.93"/><circle class="d" cx="63.31" cy="62.93" r="29.4"/><circle class="e" cx="63.8" cy="63.8" r="4.33"/><path class="f" d="M100,55.68a38.25,38.25,0,0,0-20.66,70.45L83.93,119a29.4,29.4,0,1,1,31.75-.61l5,7.76A38.25,38.25,0,0,0,100,55.68Z" transform="translate(-35.92 -30.58)"/><path class="g" d="M100,55.68c-.52,0-1,0-1.54,0,20.41.81,35.28,17.61,35.28,38.22,0,12.58-7.07,20-16.44,27l3.36,5.24A38.25,38.25,0,0,0,100,55.68Z" transform="translate(-35.92 -30.58)"/><path class="h" d="M69.8,77c-3.14,5-4.19,10.45-4.64,10.13s.08-6.27,3.47-11.32,7.3-6.91,7.45-6.57S72.89,72,69.8,77Z" transform="translate(-35.92 -30.58)"/><path class="i" d="M100,55.68a38.25,38.25,0,0,0-20.66,70.45L83.93,119a29.4,29.4,0,1,1,31.75-.61l5,7.76A38.25,38.25,0,0,0,100,55.68Z" transform="translate(-35.92 -30.58)"/><path class="j" d="M100.24,93.58l-22-8.89a6,6,0,0,0,.18-1.44L63.9,78.93c-.47-.19-2.51-.53-2.69-.07s1.54,1.57,2,1.76l13.31,6.74a5.68,5.68,0,0,0,.91-1l22.12,8.92a.91.91,0,1,0,.68-1.69Z" transform="translate(-35.92 -30.58)"/><circle class="k" cx="63.8" cy="63.8" r="2.38"/><text class="l" transform="translate(27.42 100.33)">930</text><text class="l" transform="translate(17.11 90)">940</text><text class="l" transform="translate(12.5 77.36)">950</text><text class="l" transform="translate(11.04 65.75)">960</text><text class="l" transform="translate(12.03 53.13)">970</text><text class="l" transform="translate(17.31 42)">980</text><text class="l" transform="translate(24.83 31.4)">990</text><text class="l" transform="translate(33.9 24.09)">1000</text><text class="l" transform="translate(46.62 19.57)">1010</text><text class="l" transform="translate(58.88 18.23)">1020</text><text class="l" transform="translate(71.95 19.63)">1030</text><text class="l" transform="translate(82.71 24.09)">1040</text><text class="l" transform="translate(91.93 30.23)">1050</text><text class="l" transform="translate(102.01 40.67)">1060</text><text class="l" transform="translate(107.6 53.19)">1070</text><text class="l" transform="translate(109.32 65.81)">1080</text><text class="l" transform="translate(108.12 78.41)">1090</text><text class="l" transform="translate(103.57 89.07)">1100</text><text class="l" transform="translate(93.49 100.33)">1110</text><text class="m" transform="translate(55.65 45.85)">h<tspan class="n" x="5.55" y="0">P</tspan><tspan class="o" x="10.61" y="0">a</tspan></text><path class="h" d="M98.85,93.81c-.33.59-.59,1.17-.83,1s-.27-1,.19-1.67,1-.73,1.14-.54S99.18,93.21,98.85,93.81Z" transform="translate(-35.92 -30.58)"/><path class="h" d="M72.19,82.33a40.94,40.94,0,0,1-5.43-1.9c0-.08,2.56.68,5.48,1.57s5.29,1.55,5.32,1.87S75.18,83.2,72.19,82.33Z" transform="translate(-35.92 -30.58)"/></svg>