<svg xmlns="http://www.w3.org/2000/svg" viewBox="0 0 160.65 176.59"><defs><style>.a{fill:#fff;}.a,.e,.h,.i{stroke:#1d1d1b;stroke-miterlimit:10;}.b{fill:#f9b233;}.c{fill:#cf9423;}.d{fill:#f6f6f6;}.e,.f{fill:#434b6e;}.e,.h,.i{stroke-width:0.5px;}.g{fill:#2d2e42;}.h{fill:#8585a3;}.i{fill:none;}</style></defs><path class="a" d="M144.7,87.93a46.81,46.81,0,1,0-83.44,29.14A61.56,61.56,0,0,1,75,155.36v9.73a8.33,8.33,0,0,0,8.33,8.33h29.06a8.33,8.33,0,0,0,8.33-8.33v-9.15a60.37,60.37,0,0,1,13.35-38.35A46.57,46.57,0,0,0,144.7,87.93Z" transform="translate(-17.56 -8.65)"/><path class="b" d="M144.7,87.93a46.81,46.81,0,1,0-83.44,29.14A61.56,61.56,0,0,1,75,155.36v9.73a8.33,8.33,0,0,0,8.33,8.33h29.06a8.33,8.33,0,0,0,8.33-8.33v-9.15a60.37,60.37,0,0,1,13.35-38.35A46.57,46.57,0,0,0,144.7,87.93Z" transform="translate(-17.56 -8.65)"/><path class="c" d="M127.3,51.52A52.85,52.85,0,0,1,136,80.73c0,28.59-22.34,51.76-49.89,51.76A48.09,48.09,0,0,1,69,129.35a59.91,59.91,0,0,1,6,26v9.73a8.33,8.33,0,0,0,8.33,8.33h29.06a8.33,8.33,0,0,0,8.33-8.33v-9.15a60.37,60.37,0,0,1,13.35-38.35,46.8,46.8,0,0,0-6.8-66.07Z" transform="translate(-17.56 -8.65)"/><path class="d" d="M91.35,48.48c-1.55.61-12.83,5.63-18,10.13-5,4.32-10.87,13.71-11.87,15.91a3.34,3.34,0,0,1-1.76,1.89,2.82,2.82,0,0,1-1.89-.06,2.93,2.93,0,0,1-1-1.09,3.57,3.57,0,0,1,0-2.69C59.63,64,69.72,55.15,69.72,55.15S79.91,46.26,90,44a3.08,3.08,0,0,1,1.63.08,2.71,2.71,0,0,1,1.42,1.32,2.41,2.41,0,0,1,0,1.57A2.91,2.91,0,0,1,91.35,48.48Z" transform="translate(-17.56 -8.65)"/><ellipse class="e" cx="80.33" cy="163.77" rx="15.37" ry="12.57"/><path class="f" d="M57.17,145.65h46.3a0,0,0,0,1,0,0v12.52a10.7,10.7,0,0,1-10.7,10.7H68a10.8,10.8,0,0,1-10.8-10.8V145.65A0,0,0,0,1,57.17,145.65Z"/><path class="g" d="M78.59,174.91a10.72,10.72,0,0,0,6.93,2.53h24.81a10.61,10.61,0,0,0,6.89-2.53Z" transform="translate(-17.56 -8.65)"/><path class="h" d="M76.64,172.91a10.9,10.9,0,0,0,2.55,2.61h37.47a10.63,10.63,0,0,0,2.53-2.61Z" transform="translate(-17.56 -8.65)"/><path class="i" d="M57.17,145.65h46.3a0,0,0,0,1,0,0v12.7A10.43,10.43,0,0,1,93,168.78H67.61a10.43,10.43,0,0,1-10.43-10.43v-12.7A0,0,0,0,1,57.17,145.65Z"/><rect class="h" x="55.98" y="144.13" width="48.75" height="4.04" rx="1.96"/><rect class="h" x="54.92" y="149.6" width="50.81" height="5.27" rx="2.64"/><rect class="h" x="55.57" y="156.29" width="49.52" height="5.27" rx="2.64"/><rect class="b" x="77.19" width="6.27" height="25.39" rx="3.03"/><rect class="b" x="41.28" y="24.63" width="6.27" height="25.81" rx="3.03" transform="translate(-31.1 33.75) rotate(-45)"/><rect class="b" x="148.23" y="24.63" width="6.27" height="25.81" rx="3.03" transform="translate(53.31 -104.69) rotate(45)"/><rect class="b" x="162.18" y="74.44" width="6.27" height="25.81" rx="3.03" transform="translate(60.4 244.01) rotate(-90)"/><rect class="b" x="41.28" y="126.13" width="6.27" height="25.81" rx="3.03" transform="translate(93.76 0.66) rotate(45)"/><rect class="b" x="148.23" y="124.26" width="6.27" height="25.81" rx="3.03" transform="translate(-70.22 138.55) rotate(-45)"/><rect class="b" x="27.34" y="74.44" width="6.27" height="25.81" rx="3.03" transform="translate(-74.44 109.17) rotate(-90)"/></svg>