<svg xmlns="http://www.w3.org/2000/svg" viewBox="0 0 39.84 137.85"><defs><style>.a{fill:#9cf;opacity:0.6;}.b{fill:none;stroke:#1d1d1b;stroke-miterlimit:10;stroke-width:0.5px;}.c{fill:#e6332a;}.d{fill:#1d1d1b;}.e{opacity:0.9;}.f{fill:#fff;}</style></defs><path class="a" d="M108.53,132.06V37.67a6.38,6.38,0,0,0-6.37-6.38H94.91a6.38,6.38,0,0,0-6.38,6.38v94.39a19.68,19.68,0,1,0,20,0Z" transform="translate(-78.61 -31.04)"/><path class="b" d="M108.53,132.06V37.67a6.38,6.38,0,0,0-6.37-6.38H94.91a6.38,6.38,0,0,0-6.38,6.38v94.39a19.68,19.68,0,1,0,20,0Z" transform="translate(-78.61 -31.04)"/><path class="c" d="M105.47,133.42V67.19a6.38,6.38,0,0,0-6.38-6.38H98a6.38,6.38,0,0,0-6.38,6.38v66.23a17,17,0,1,0,13.87,0Z" transform="translate(-78.61 -31.04)"/><path class="d" d="M106,127H99.36a.83.83,0,0,0-.83.82v.71a.83.83,0,0,0,.83.83h9.17V127Z" transform="translate(-78.61 -31.04)"/><path class="d" d="M105.92,103.43H99.26a.83.83,0,0,0-.83.82V105a.83.83,0,0,0,.83.82h9.17v-2.36Z" transform="translate(-78.61 -31.04)"/><path class="d" d="M106,115.23H99.36a.83.83,0,0,0-.83.83v.71a.83.83,0,0,0,.83.82h9.17v-2.36Z" transform="translate(-78.61 -31.04)"/><path class="d" d="M106,79.82H99.36a.83.83,0,0,0-.83.82v.72a.83.83,0,0,0,.83.82h9.17V79.82Z" transform="translate(-78.61 -31.04)"/><path class="d" d="M106,68H99.36a.83.83,0,0,0-.83.83v.71a.83.83,0,0,0,.83.83h9.17V68Z" transform="translate(-78.61 -31.04)"/><path class="d" d="M106,91.62H99.36a.83.83,0,0,0-.83.83v.71a.83.83,0,0,0,.83.83h9.17V91.62Z" transform="translate(-78.61 -31.04)"/><path class="d" d="M106,56.21H99.36a.83.83,0,0,0-.83.82v.72a.83.83,0,0,0,.83.82h9.17V56.21Z" transform="translate(-78.61 -31.04)"/><path class="d" d="M105.92,44.41H99.26a.83.83,0,0,0-.83.82v.71a.83.83,0,0,0,.83.83h9.17V44.41Z" transform="translate(-78.61 -31.04)"/><g class="e"><path class="f" d="M110.1,158.77A15.83,15.83,0,0,1,98,163.94a15.24,15.24,0,0,1-11.86-5.86,7.7,7.7,0,0,1-1.46-3.38c-.14-1,0-1.67.38-1.82h0c.75-.23,2.08,1.23,3.44,2.59a10.91,10.91,0,0,0,8.33,3.43,10.34,10.34,0,0,0,8.07-4.13,5.43,5.43,0,0,1,2.12-1.71,3.61,3.61,0,0,1,2.74-.19h0C111.62,153.48,112.12,156.57,110.1,158.77Z" transform="translate(-78.61 -31.04)"/></g></svg>